M48
;Layer_Color=9474304
;FILE_FORMAT=2:5
INCH,LZ
;TYPE=PLATED
T1F00S00C0.02480
T2F00S00C0.02756
T3F00S00C0.02800
T4F00S00C0.03150
T5F00S00C0.03543
T6F00S00C0.03937
T7F00S00C0.04000
T8F00S00C0.04331
T9F00S00C0.04400
T10F00S00C0.05787
%
T01
X0135Y0065
X0154213
T02
X0035Y0040157
Y005
X0205Y0105157
Y0115
X019Y0245
X022
X0065Y0235
X0035
T03
X002Y015
X007
X014Y0105
X0185Y0085
X018Y006
T04
X0085Y009
X0095
X011
X012
X0185Y0134508
X0195
X0205
X0215
Y0165492
X0205
X0195
X0185
T05
X009Y013
Y0155
X016874
Y013
T06
X0055Y004
Y005
Y006
X0195Y0195
X0205
X0215
T07
X0075Y0025
Y0035
Y0045
X0085
Y0035
Y0025
X01Y026
Y027
X0115
Y026
T08
X01Y0215
X011
X012
T09
X01005Y0016063
X01105
X01205
X01305
X01405
X01505
Y0046063
X01405
X01305
X01205
X01105
X01005
X01605
X01705
X01805
X01905
X02005
X02105
X02205
X02305
Y0016063
X02205
X02105
X02005
X01905
X01805
X01705
X01605
T10
X0085Y019
X0144055
M30
