G04*
G04 #@! TF.GenerationSoftware,Altium Limited,Altium Designer,19.1.7 (138)*
G04*
G04 Layer_Physical_Order=1*
G04 Layer_Color=255*
%FSLAX25Y25*%
%MOIN*%
G70*
G01*
G75*
%ADD12C,0.01000*%
%ADD16R,0.05512X0.05906*%
%ADD17R,0.05906X0.05512*%
%ADD38C,0.06299*%
%ADD39R,0.06299X0.06299*%
%ADD40R,0.06299X0.06299*%
%ADD41C,0.04724*%
%ADD42R,0.06693X0.06693*%
%ADD43C,0.06693*%
%ADD44C,0.05906*%
%ADD45C,0.06299*%
%ADD46C,0.08661*%
%ADD47C,0.04449*%
%ADD48R,0.04724X0.04724*%
%ADD49C,0.05150*%
%ADD50R,0.05150X0.05150*%
%ADD51R,0.06000X0.06000*%
%ADD52C,0.06000*%
%ADD53C,0.05000*%
%ADD54C,0.06600*%
%ADD55R,0.06600X0.06600*%
G36*
X165000Y180000D02*
X125000D01*
Y220000D01*
X60000D01*
Y235000D01*
X90000Y265000D01*
X165000D01*
Y180000D01*
D02*
G37*
G36*
X115000Y175000D02*
X100000D01*
Y155918D01*
X93249D01*
X92929Y156691D01*
X92391Y157391D01*
X91691Y157929D01*
X90875Y158266D01*
X90000Y158382D01*
X89125Y158266D01*
X88309Y157929D01*
X87609Y157391D01*
X87071Y156691D01*
X86734Y155875D01*
X86618Y155000D01*
X86734Y154125D01*
X87071Y153309D01*
X87609Y152609D01*
X88309Y152071D01*
X89082Y151751D01*
Y140000D01*
X60000D01*
Y219567D01*
X115000D01*
Y175000D01*
D02*
G37*
G36*
X255000Y150000D02*
X210000D01*
Y205000D01*
X165433Y249567D01*
Y265000D01*
X165306Y265306D01*
X165000Y265433D01*
X90000D01*
X89694Y265306D01*
X59694Y235306D01*
X59567Y235000D01*
Y220000D01*
X59657Y219783D01*
X59567Y219567D01*
Y140000D01*
X59694Y139694D01*
X60000Y139567D01*
Y55000D01*
X0D01*
Y310000D01*
X255000D01*
Y150000D01*
D02*
G37*
G36*
X100000Y140000D02*
X90918D01*
Y151751D01*
X91691Y152071D01*
X92391Y152609D01*
X92929Y153309D01*
X93249Y154082D01*
X100000D01*
Y140000D01*
D02*
G37*
%LPC*%
G36*
Y263429D02*
X99112Y263313D01*
X98285Y262970D01*
X97575Y262425D01*
X97030Y261715D01*
X96688Y260888D01*
X96571Y260000D01*
X96688Y259112D01*
X97030Y258285D01*
X97575Y257575D01*
X98285Y257030D01*
X99112Y256687D01*
X100000Y256571D01*
X100888Y256687D01*
X101715Y257030D01*
X102425Y257575D01*
X102970Y258285D01*
X103313Y259112D01*
X103429Y260000D01*
X103313Y260888D01*
X102970Y261715D01*
X102425Y262425D01*
X101715Y262970D01*
X100888Y263313D01*
X100000Y263429D01*
D02*
G37*
G36*
Y218779D02*
X99022Y218650D01*
X98111Y218272D01*
X97328Y217672D01*
X96728Y216889D01*
X96350Y215978D01*
X96221Y215000D01*
X96350Y214022D01*
X96728Y213111D01*
X97328Y212328D01*
X98111Y211727D01*
X99022Y211350D01*
X100000Y211221D01*
X100978Y211350D01*
X101889Y211727D01*
X102672Y212328D01*
X103272Y213111D01*
X103650Y214022D01*
X103779Y215000D01*
X103650Y215978D01*
X103272Y216889D01*
X102672Y217672D01*
X101889Y218272D01*
X100978Y218650D01*
X100000Y218779D01*
D02*
G37*
G36*
X190000Y247786D02*
X189279Y247691D01*
X188607Y247413D01*
X188030Y246970D01*
X187587Y246393D01*
X187309Y245721D01*
X187214Y245000D01*
X187309Y244279D01*
X187587Y243607D01*
X188030Y243030D01*
X188607Y242587D01*
X189279Y242309D01*
X190000Y242214D01*
X190721Y242309D01*
X191393Y242587D01*
X191970Y243030D01*
X192413Y243607D01*
X192691Y244279D01*
X192786Y245000D01*
X192691Y245721D01*
X192413Y246393D01*
X191970Y246970D01*
X191393Y247413D01*
X190721Y247691D01*
X190000Y247786D01*
D02*
G37*
G36*
X215000Y168493D02*
X214223Y168390D01*
X213500Y168091D01*
X212878Y167614D01*
X212402Y166992D01*
X212102Y166269D01*
X212000Y165492D01*
X212102Y164716D01*
X212402Y163992D01*
X212878Y163371D01*
X213500Y162894D01*
X214223Y162594D01*
X215000Y162492D01*
X215777Y162594D01*
X216500Y162894D01*
X217122Y163371D01*
X217599Y163992D01*
X217898Y164716D01*
X218001Y165492D01*
X217898Y166269D01*
X217599Y166992D01*
X217122Y167614D01*
X216500Y168091D01*
X215777Y168390D01*
X215000Y168493D01*
D02*
G37*
%LPD*%
D12*
X70000Y40000D02*
X75000Y35000D01*
X55000Y40000D02*
X70000D01*
X35000Y40157D02*
X35157Y40000D01*
X55000D01*
X195000Y175492D02*
X205000Y165492D01*
X195000Y175492D02*
Y195000D01*
X140000Y105000D02*
X151063D01*
X185000Y85000D02*
X195000D01*
X168740Y130000D02*
X195000Y156260D01*
X180000Y60000D02*
X190000D01*
X216563D02*
X230500Y46063D01*
X197874Y60000D02*
X216563D01*
X150500Y46063D02*
X154213Y49776D01*
Y65000D01*
X135000Y51563D02*
X140500Y46063D01*
X135000Y51563D02*
Y65000D01*
X105000Y51563D02*
X110500Y46063D01*
X105000Y51563D02*
Y66063D01*
X107453Y76390D02*
X110000Y78937D01*
X107453Y76193D02*
Y76390D01*
X105197Y73937D02*
X107453Y76193D01*
X105000Y73937D02*
X105197D01*
X110000Y78937D02*
Y90000D01*
X85000Y75000D02*
Y90000D01*
X100500Y46063D02*
Y51823D01*
X85197Y67126D02*
X100500Y51823D01*
X85000Y67126D02*
X85197D01*
X195000Y156260D02*
Y165492D01*
X205000Y150000D02*
Y165492D01*
Y150000D02*
X210000Y145000D01*
Y133004D02*
Y145000D01*
X205000Y128004D02*
X210000Y133004D01*
X205000Y115000D02*
Y128004D01*
X202874Y85197D02*
X230000Y112323D01*
X202874Y85000D02*
Y85197D01*
X230000Y112323D02*
Y145000D01*
X239414Y30000D02*
X240000Y30586D01*
Y47677D01*
X202874Y84803D02*
X240000Y47677D01*
X202874Y84803D02*
Y85000D01*
X194437Y30000D02*
X239414D01*
X180500Y16063D02*
X194437Y30000D01*
X180000Y10000D02*
X184437D01*
X190500Y16063D01*
X176300Y13700D02*
X180000Y10000D01*
X176300Y13700D02*
Y48700D01*
X158937Y66063D02*
X176300Y48700D01*
X158937Y66063D02*
Y105000D01*
X150500Y16063D02*
X170500Y36063D01*
Y46063D01*
X160000Y106063D02*
Y155000D01*
X158937Y105000D02*
X160000Y106063D01*
Y155000D02*
X165000Y160000D01*
Y170000D01*
X168937Y173937D01*
Y220000D01*
X90000Y130000D02*
Y155000D01*
X110000D01*
X120000Y165000D01*
Y215000D01*
X130000Y16563D02*
Y20000D01*
X111100Y38900D02*
X130000Y20000D01*
Y16563D02*
X130500Y16063D01*
X85585Y38900D02*
X111100D01*
X53306Y38032D02*
X55946D01*
X74043Y34043D02*
X75000Y35000D01*
X89485Y5000D02*
X135377D01*
X70000Y24485D02*
X89485Y5000D01*
X70000Y24485D02*
Y26647D01*
X74043Y30690D01*
Y34043D01*
X90000Y10000D02*
X134437D01*
X75000Y25000D02*
X90000Y10000D01*
X111563Y25000D02*
X120500Y16063D01*
X85000Y25000D02*
X111563D01*
X81985Y42500D02*
X85585Y38900D01*
X77500Y42500D02*
X81985D01*
X75000Y45000D02*
X77500Y42500D01*
X135377Y5000D02*
X145700Y15323D01*
X149760D01*
X150500Y16063D01*
X134437Y10000D02*
X140500Y16063D01*
D16*
X158937Y105000D02*
D03*
X151063D02*
D03*
X161063Y220000D02*
D03*
X168937D02*
D03*
X197874Y60000D02*
D03*
X190000D02*
D03*
X195000Y85000D02*
D03*
X202874D02*
D03*
D17*
X105000Y73937D02*
D03*
Y66063D02*
D03*
X85000Y75000D02*
D03*
Y67126D02*
D03*
X230000Y152874D02*
D03*
Y145000D02*
D03*
D38*
X55000Y40000D02*
D03*
Y50000D02*
D03*
X195000Y195000D02*
D03*
X205000D02*
D03*
D39*
X55000Y60000D02*
D03*
D40*
X215000Y195000D02*
D03*
D41*
X35000Y50000D02*
D03*
Y40157D02*
D03*
X205000Y105157D02*
D03*
Y115000D02*
D03*
X190000Y245000D02*
D03*
X35000Y235000D02*
D03*
D42*
X120000Y215000D02*
D03*
D43*
X110000D02*
D03*
X100000D02*
D03*
D44*
X90000Y155000D02*
D03*
X168740D02*
D03*
Y130000D02*
D03*
X90000D02*
D03*
D45*
X120000Y90000D02*
D03*
X110000D02*
D03*
X95000D02*
D03*
X85000D02*
D03*
D46*
Y190000D02*
D03*
X144055D02*
D03*
D47*
X135000Y65000D02*
D03*
X154213D02*
D03*
D48*
X220000Y245000D02*
D03*
X65000Y235000D02*
D03*
D49*
X195000Y165492D02*
D03*
X205000D02*
D03*
X185000D02*
D03*
X215000D02*
D03*
Y134508D02*
D03*
X195000D02*
D03*
X205000D02*
D03*
D50*
X185000D02*
D03*
D51*
X100000Y270000D02*
D03*
X115000Y260000D02*
D03*
X75000Y45000D02*
D03*
D52*
X100000Y260000D02*
D03*
X115000Y270000D02*
D03*
X75000Y35000D02*
D03*
Y25000D02*
D03*
X85000D02*
D03*
Y35000D02*
D03*
Y45000D02*
D03*
D53*
X70000Y150000D02*
D03*
X20000D02*
D03*
X140000Y105000D02*
D03*
X185000Y85000D02*
D03*
X180000Y60000D02*
D03*
D54*
X230500Y16063D02*
D03*
X220500D02*
D03*
X210500D02*
D03*
X200500D02*
D03*
X190500D02*
D03*
X180500D02*
D03*
X170500D02*
D03*
X160500D02*
D03*
X150500D02*
D03*
X140500D02*
D03*
X130500D02*
D03*
X120500D02*
D03*
X110500D02*
D03*
X100500D02*
D03*
Y46063D02*
D03*
X110500D02*
D03*
X120500D02*
D03*
X130500D02*
D03*
X140500D02*
D03*
X150500D02*
D03*
X160500D02*
D03*
X170500D02*
D03*
X180500D02*
D03*
X190500D02*
D03*
X200500D02*
D03*
X210500D02*
D03*
X220500D02*
D03*
D55*
X230500D02*
D03*
M02*
