G04*
G04 #@! TF.GenerationSoftware,Altium Limited,Altium Designer,19.1.7 (138)*
G04*
G04 Layer_Color=32768*
%FSLAX25Y25*%
%MOIN*%
G70*
G01*
G75*
%ADD57C,0.00394*%
%ADD58C,0.00197*%
D57*
X53031Y50000D02*
X56968D01*
X55000Y48031D02*
Y51968D01*
X205000Y193032D02*
Y196968D01*
X203031Y195000D02*
X206968D01*
X155000Y103032D02*
Y106968D01*
X153032Y105000D02*
X156968D01*
X146339Y100079D02*
X163661D01*
X146339Y109921D02*
X163661D01*
Y100079D02*
Y109921D01*
X146339Y100079D02*
Y109921D01*
X110000Y213032D02*
Y216968D01*
X108031Y215000D02*
X111969D01*
X103032Y70000D02*
X106968D01*
X105000Y68032D02*
Y71969D01*
X109921Y61339D02*
Y78661D01*
X100079Y61339D02*
Y78661D01*
X109921D01*
X100079Y61339D02*
X109921D01*
X83031Y71063D02*
X86968D01*
X85000Y69095D02*
Y73032D01*
X89921Y62402D02*
Y79724D01*
X80079Y62402D02*
Y79724D01*
X89921D01*
X80079Y62402D02*
X89921D01*
X228031Y148937D02*
X231968D01*
X230000Y146968D02*
Y150906D01*
X234921Y140276D02*
Y157598D01*
X225079Y140276D02*
Y157598D01*
X234921D01*
X225079Y140276D02*
X234921D01*
X165000Y218032D02*
Y221969D01*
X163031Y220000D02*
X166969D01*
X156339Y224921D02*
X173661D01*
X156339Y215079D02*
X173661D01*
X156339D02*
Y224921D01*
X173661Y215079D02*
Y224921D01*
X202598Y55079D02*
Y64921D01*
X185276Y55079D02*
Y64921D01*
Y55079D02*
X202598D01*
X185276Y64921D02*
X202598D01*
X191969Y60000D02*
X195905D01*
X193937Y58031D02*
Y61968D01*
X190276Y80079D02*
Y89921D01*
X207598Y80079D02*
Y89921D01*
X190276D02*
X207598D01*
X190276Y80079D02*
X207598D01*
X196968Y85000D02*
X200905D01*
X198937Y83031D02*
Y86968D01*
D58*
X88740Y223150D02*
X131260D01*
X88740Y203465D02*
X131260D01*
Y223150D01*
X88740Y203465D02*
Y223150D01*
M02*
