G04*
G04 #@! TF.GenerationSoftware,Altium Limited,Altium Designer,19.1.7 (138)*
G04*
G04 Layer_Color=16711935*
%FSLAX25Y25*%
%MOIN*%
G70*
G01*
G75*
%ADD57C,0.00394*%
D57*
X66220Y28937D02*
Y71063D01*
X47717Y28937D02*
Y71063D01*
X66220D01*
X47717Y28937D02*
X66220D01*
X61102D02*
Y71063D01*
X183937Y183780D02*
X226063D01*
X183937Y202284D02*
X226063D01*
Y183780D02*
Y202284D01*
X183937Y183780D02*
Y202284D01*
Y188898D02*
X226063D01*
X150768Y102244D02*
X159232D01*
X150768Y107756D02*
X159232D01*
Y102244D02*
Y107756D01*
X150768Y102244D02*
Y107756D01*
X89724Y222165D02*
X130276D01*
X89724Y204449D02*
X130276D01*
Y222165D01*
X89724Y204449D02*
Y222165D01*
Y209764D02*
X130276D01*
X107756Y65768D02*
Y74232D01*
X102244Y65768D02*
Y74232D01*
X107756D01*
X102244Y65768D02*
X107756D01*
X87756Y66831D02*
Y75295D01*
X82244Y66831D02*
Y75295D01*
X87756D01*
X82244Y66831D02*
X87756D01*
X232756Y144705D02*
Y153169D01*
X227244Y144705D02*
Y153169D01*
X232756D01*
X227244Y144705D02*
X232756D01*
X160768Y222756D02*
X169232D01*
X160768Y217244D02*
X169232D01*
X160768D02*
Y222756D01*
X169232Y217244D02*
Y222756D01*
X198169Y57244D02*
Y62756D01*
X189705Y57244D02*
Y62756D01*
Y57244D02*
X198169D01*
X189705Y62756D02*
X198169D01*
X194705Y82244D02*
Y87756D01*
X203169Y82244D02*
Y87756D01*
X194705D02*
X203169D01*
X194705Y82244D02*
X203169D01*
M02*
