G04*
G04 #@! TF.GenerationSoftware,Altium Limited,Altium Designer,19.1.7 (138)*
G04*
G04 Layer_Physical_Order=2*
G04 Layer_Color=16711680*
%FSLAX25Y25*%
%MOIN*%
G70*
G01*
G75*
%ADD12C,0.01000*%
%ADD38C,0.06299*%
%ADD39R,0.06299X0.06299*%
%ADD40R,0.06299X0.06299*%
%ADD41C,0.04724*%
%ADD42R,0.06693X0.06693*%
%ADD43C,0.06693*%
%ADD44C,0.05906*%
%ADD45C,0.06299*%
%ADD46C,0.08661*%
%ADD47C,0.04449*%
%ADD48R,0.04724X0.04724*%
%ADD49C,0.05150*%
%ADD50R,0.05150X0.05150*%
%ADD51R,0.06000X0.06000*%
%ADD52C,0.06000*%
%ADD53C,0.05000*%
%ADD54C,0.06600*%
%ADD55R,0.06600X0.06600*%
G36*
X255000Y280000D02*
Y0D01*
X0D01*
Y280000D01*
X255000Y280000D01*
D02*
G37*
%LPC*%
G36*
X103400Y273400D02*
X96600D01*
Y266600D01*
X103400D01*
Y273400D01*
D02*
G37*
G36*
X115000Y273429D02*
X114112Y273312D01*
X113285Y272970D01*
X112575Y272425D01*
X112030Y271715D01*
X111688Y270888D01*
X111571Y270000D01*
X111688Y269112D01*
X112030Y268285D01*
X112575Y267575D01*
X113285Y267030D01*
X114112Y266687D01*
X115000Y266571D01*
X115888Y266687D01*
X116715Y267030D01*
X117425Y267575D01*
X117970Y268285D01*
X118313Y269112D01*
X118429Y270000D01*
X118313Y270888D01*
X117970Y271715D01*
X117425Y272425D01*
X116715Y272970D01*
X115888Y273312D01*
X115000Y273429D01*
D02*
G37*
G36*
X118400Y263400D02*
X111600D01*
Y256600D01*
X118400D01*
Y263400D01*
D02*
G37*
G36*
X222762Y247762D02*
X217238D01*
Y242238D01*
X222762D01*
Y247762D01*
D02*
G37*
G36*
X67762Y237762D02*
X62238D01*
Y232238D01*
X67762D01*
Y237762D01*
D02*
G37*
G36*
X35000Y237786D02*
X34279Y237691D01*
X33607Y237413D01*
X33030Y236970D01*
X32587Y236393D01*
X32309Y235721D01*
X32214Y235000D01*
X32309Y234279D01*
X32587Y233607D01*
X33030Y233030D01*
X33607Y232587D01*
X34279Y232309D01*
X35000Y232214D01*
X35721Y232309D01*
X36393Y232587D01*
X36970Y233030D01*
X37413Y233607D01*
X37691Y234279D01*
X37786Y235000D01*
X37691Y235721D01*
X37413Y236393D01*
X36970Y236970D01*
X36393Y237413D01*
X35721Y237691D01*
X35000Y237786D01*
D02*
G37*
G36*
X123747Y218746D02*
X116253D01*
Y211253D01*
X123747D01*
Y218746D01*
D02*
G37*
G36*
X110000Y218779D02*
X109022Y218650D01*
X108111Y218272D01*
X107328Y217672D01*
X106728Y216889D01*
X106350Y215978D01*
X106221Y215000D01*
X106350Y214022D01*
X106728Y213111D01*
X107328Y212328D01*
X108111Y211727D01*
X109022Y211350D01*
X110000Y211221D01*
X110978Y211350D01*
X111889Y211727D01*
X112672Y212328D01*
X113273Y213111D01*
X113650Y214022D01*
X113779Y215000D01*
X113650Y215978D01*
X113273Y216889D01*
X112672Y217672D01*
X111889Y218272D01*
X110978Y218650D01*
X110000Y218779D01*
D02*
G37*
G36*
X218550Y198550D02*
X211450D01*
Y191450D01*
X218550D01*
Y198550D01*
D02*
G37*
G36*
X195000Y198580D02*
X194073Y198458D01*
X193210Y198101D01*
X192468Y197532D01*
X191899Y196790D01*
X191542Y195927D01*
X191420Y195000D01*
X191542Y194073D01*
X191899Y193210D01*
X192468Y192468D01*
X193210Y191899D01*
X194073Y191542D01*
X195000Y191420D01*
X195927Y191542D01*
X196790Y191899D01*
X197532Y192468D01*
X198101Y193210D01*
X198458Y194073D01*
X198580Y195000D01*
X198458Y195927D01*
X198101Y196790D01*
X197532Y197532D01*
X196790Y198101D01*
X195927Y198458D01*
X195000Y198580D01*
D02*
G37*
G36*
X144055Y194772D02*
X142820Y194609D01*
X141669Y194132D01*
X140681Y193374D01*
X139923Y192386D01*
X139446Y191235D01*
X139284Y190000D01*
X139446Y188765D01*
X139923Y187614D01*
X140681Y186626D01*
X141669Y185868D01*
X142820Y185391D01*
X144055Y185229D01*
X145290Y185391D01*
X146441Y185868D01*
X147429Y186626D01*
X148187Y187614D01*
X148664Y188765D01*
X148827Y190000D01*
X148664Y191235D01*
X148187Y192386D01*
X147429Y193374D01*
X146441Y194132D01*
X145290Y194609D01*
X144055Y194772D01*
D02*
G37*
G36*
X85000D02*
X83765Y194609D01*
X82614Y194132D01*
X81626Y193374D01*
X80868Y192386D01*
X80391Y191235D01*
X80229Y190000D01*
X80391Y188765D01*
X80868Y187614D01*
X81626Y186626D01*
X82614Y185868D01*
X83765Y185391D01*
X85000Y185229D01*
X86235Y185391D01*
X87386Y185868D01*
X88374Y186626D01*
X89132Y187614D01*
X89609Y188765D01*
X89771Y190000D01*
X89609Y191235D01*
X89132Y192386D01*
X88374Y193374D01*
X87386Y194132D01*
X86235Y194609D01*
X85000Y194772D01*
D02*
G37*
G36*
X215000Y168493D02*
X214223Y168390D01*
X213500Y168091D01*
X212878Y167614D01*
X212402Y166992D01*
X212102Y166269D01*
X212000Y165492D01*
X212102Y164716D01*
X212402Y163992D01*
X212878Y163371D01*
X213500Y162894D01*
X214223Y162594D01*
X215000Y162492D01*
X215777Y162594D01*
X216500Y162894D01*
X217122Y163371D01*
X217599Y163992D01*
X217898Y164716D01*
X218001Y165492D01*
X217898Y166269D01*
X217599Y166992D01*
X217122Y167614D01*
X216500Y168091D01*
X215777Y168390D01*
X215000Y168493D01*
D02*
G37*
G36*
X205000D02*
X204223Y168390D01*
X203500Y168091D01*
X202878Y167614D01*
X202401Y166992D01*
X202102Y166269D01*
X201999Y165492D01*
X202102Y164716D01*
X202401Y163992D01*
X202878Y163371D01*
X203500Y162894D01*
X204223Y162594D01*
X205000Y162492D01*
X205777Y162594D01*
X206500Y162894D01*
X207122Y163371D01*
X207598Y163992D01*
X207898Y164716D01*
X208000Y165492D01*
X207898Y166269D01*
X207598Y166992D01*
X207122Y167614D01*
X206500Y168091D01*
X205777Y168390D01*
X205000Y168493D01*
D02*
G37*
G36*
X195000D02*
X194223Y168390D01*
X193500Y168091D01*
X192878Y167614D01*
X192402Y166992D01*
X192102Y166269D01*
X191999Y165492D01*
X192102Y164716D01*
X192402Y163992D01*
X192878Y163371D01*
X193500Y162894D01*
X194223Y162594D01*
X195000Y162492D01*
X195777Y162594D01*
X196500Y162894D01*
X197122Y163371D01*
X197599Y163992D01*
X197898Y164716D01*
X198001Y165492D01*
X197898Y166269D01*
X197599Y166992D01*
X197122Y167614D01*
X196500Y168091D01*
X195777Y168390D01*
X195000Y168493D01*
D02*
G37*
G36*
X185000D02*
X184223Y168390D01*
X183500Y168091D01*
X182878Y167614D01*
X182402Y166992D01*
X182102Y166269D01*
X182000Y165492D01*
X182102Y164716D01*
X182402Y163992D01*
X182878Y163371D01*
X183500Y162894D01*
X184223Y162594D01*
X185000Y162492D01*
X185777Y162594D01*
X186500Y162894D01*
X187122Y163371D01*
X187599Y163992D01*
X187898Y164716D01*
X188001Y165492D01*
X187898Y166269D01*
X187599Y166992D01*
X187122Y167614D01*
X186500Y168091D01*
X185777Y168390D01*
X185000Y168493D01*
D02*
G37*
G36*
X90000Y158382D02*
X89125Y158266D01*
X88309Y157929D01*
X87609Y157391D01*
X87071Y156691D01*
X86734Y155875D01*
X86618Y155000D01*
X86734Y154125D01*
X87071Y153309D01*
X87609Y152609D01*
X88309Y152071D01*
X89125Y151734D01*
X90000Y151618D01*
X90875Y151734D01*
X91691Y152071D01*
X92391Y152609D01*
X92929Y153309D01*
X93266Y154125D01*
X93382Y155000D01*
X93266Y155875D01*
X92929Y156691D01*
X92391Y157391D01*
X91691Y157929D01*
X90875Y158266D01*
X90000Y158382D01*
D02*
G37*
G36*
X70000Y152925D02*
X69243Y152825D01*
X68537Y152533D01*
X67932Y152068D01*
X67467Y151462D01*
X67175Y150757D01*
X67075Y150000D01*
X67175Y149243D01*
X67467Y148538D01*
X67932Y147932D01*
X68537Y147467D01*
X69243Y147175D01*
X70000Y147075D01*
X70757Y147175D01*
X71463Y147467D01*
X72068Y147932D01*
X72533Y148538D01*
X72825Y149243D01*
X72925Y150000D01*
X72825Y150757D01*
X72533Y151462D01*
X72068Y152068D01*
X71463Y152533D01*
X70757Y152825D01*
X70000Y152925D01*
D02*
G37*
G36*
X20000D02*
X19243Y152825D01*
X18538Y152533D01*
X17932Y152068D01*
X17467Y151462D01*
X17175Y150757D01*
X17075Y150000D01*
X17175Y149243D01*
X17467Y148538D01*
X17932Y147932D01*
X18538Y147467D01*
X19243Y147175D01*
X20000Y147075D01*
X20757Y147175D01*
X21463Y147467D01*
X22068Y147932D01*
X22533Y148538D01*
X22825Y149243D01*
X22925Y150000D01*
X22825Y150757D01*
X22533Y151462D01*
X22068Y152068D01*
X21463Y152533D01*
X20757Y152825D01*
X20000Y152925D01*
D02*
G37*
G36*
X187975Y137483D02*
X182025D01*
Y131533D01*
X187975D01*
Y137483D01*
D02*
G37*
G36*
X215000Y137508D02*
X214223Y137406D01*
X213500Y137106D01*
X212878Y136629D01*
X212402Y136008D01*
X212102Y135284D01*
X212000Y134508D01*
X212102Y133731D01*
X212402Y133008D01*
X212878Y132386D01*
X213500Y131909D01*
X214223Y131610D01*
X215000Y131507D01*
X215777Y131610D01*
X216500Y131909D01*
X217122Y132386D01*
X217599Y133008D01*
X217898Y133731D01*
X218001Y134508D01*
X217898Y135284D01*
X217599Y136008D01*
X217122Y136629D01*
X216500Y137106D01*
X215777Y137406D01*
X215000Y137508D01*
D02*
G37*
G36*
X168740Y133382D02*
X167865Y133266D01*
X167049Y132929D01*
X166349Y132391D01*
X165812Y131691D01*
X165474Y130875D01*
X165358Y130000D01*
X165474Y129125D01*
X165812Y128309D01*
X166349Y127609D01*
X167049Y127071D01*
X167865Y126734D01*
X168740Y126618D01*
X169615Y126734D01*
X170431Y127071D01*
X171131Y127609D01*
X171669Y128309D01*
X172007Y129125D01*
X172122Y130000D01*
X172007Y130875D01*
X171669Y131691D01*
X171131Y132391D01*
X170431Y132929D01*
X169615Y133266D01*
X168740Y133382D01*
D02*
G37*
G36*
X90000D02*
X89125Y133266D01*
X88309Y132929D01*
X87609Y132391D01*
X87071Y131691D01*
X86734Y130875D01*
X86618Y130000D01*
X86734Y129125D01*
X87071Y128309D01*
X87609Y127609D01*
X88309Y127071D01*
X89125Y126734D01*
X90000Y126618D01*
X90875Y126734D01*
X91691Y127071D01*
X92391Y127609D01*
X92929Y128309D01*
X93266Y129125D01*
X93382Y130000D01*
X93266Y130875D01*
X92929Y131691D01*
X92391Y132391D01*
X91691Y132929D01*
X90875Y133266D01*
X90000Y133382D01*
D02*
G37*
G36*
X205000Y117786D02*
X204279Y117691D01*
X203607Y117413D01*
X203030Y116970D01*
X202587Y116393D01*
X202309Y115721D01*
X202214Y115000D01*
X202309Y114279D01*
X202587Y113607D01*
X203030Y113030D01*
X203607Y112587D01*
X204279Y112309D01*
X205000Y112214D01*
X205721Y112309D01*
X206393Y112587D01*
X206970Y113030D01*
X207413Y113607D01*
X207691Y114279D01*
X207786Y115000D01*
X207691Y115721D01*
X207413Y116393D01*
X206970Y116970D01*
X206393Y117413D01*
X205721Y117691D01*
X205000Y117786D01*
D02*
G37*
G36*
X110000Y93580D02*
X109073Y93458D01*
X108210Y93101D01*
X107468Y92532D01*
X106899Y91790D01*
X106542Y90927D01*
X106420Y90000D01*
X106542Y89073D01*
X106899Y88210D01*
X107468Y87468D01*
X108210Y86899D01*
X109073Y86542D01*
X110000Y86420D01*
X110927Y86542D01*
X111790Y86899D01*
X112532Y87468D01*
X113101Y88210D01*
X113458Y89073D01*
X113580Y90000D01*
X113458Y90927D01*
X113101Y91790D01*
X112532Y92532D01*
X111790Y93101D01*
X110927Y93458D01*
X110000Y93580D01*
D02*
G37*
G36*
X85000D02*
X84073Y93458D01*
X83210Y93101D01*
X82468Y92532D01*
X81899Y91790D01*
X81542Y90927D01*
X81420Y90000D01*
X81542Y89073D01*
X81899Y88210D01*
X82468Y87468D01*
X83210Y86899D01*
X84073Y86542D01*
X85000Y86420D01*
X85927Y86542D01*
X86790Y86899D01*
X87532Y87468D01*
X88101Y88210D01*
X88458Y89073D01*
X88580Y90000D01*
X88458Y90927D01*
X88101Y91790D01*
X87532Y92532D01*
X86790Y93101D01*
X85927Y93458D01*
X85000Y93580D01*
D02*
G37*
G36*
X154213Y67647D02*
X153527Y67557D01*
X152889Y67292D01*
X152341Y66872D01*
X151920Y66324D01*
X151656Y65685D01*
X151566Y65000D01*
X151656Y64315D01*
X151920Y63677D01*
X152341Y63128D01*
X152889Y62708D01*
X153527Y62443D01*
X154213Y62353D01*
X154898Y62443D01*
X155536Y62708D01*
X156084Y63128D01*
X156505Y63677D01*
X156770Y64315D01*
X156860Y65000D01*
X156770Y65685D01*
X156505Y66324D01*
X156084Y66872D01*
X155536Y67292D01*
X154898Y67557D01*
X154213Y67647D01*
D02*
G37*
G36*
X135000D02*
X134315Y67557D01*
X133677Y67292D01*
X133128Y66872D01*
X132708Y66324D01*
X132443Y65685D01*
X132353Y65000D01*
X132443Y64315D01*
X132708Y63677D01*
X133128Y63128D01*
X133677Y62708D01*
X134315Y62443D01*
X135000Y62353D01*
X135685Y62443D01*
X136323Y62708D01*
X136872Y63128D01*
X137292Y63677D01*
X137557Y64315D01*
X137647Y65000D01*
X137557Y65685D01*
X137292Y66324D01*
X136872Y66872D01*
X136323Y67292D01*
X135685Y67557D01*
X135000Y67647D01*
D02*
G37*
G36*
X58550Y63550D02*
X51450D01*
Y56450D01*
X58550D01*
Y63550D01*
D02*
G37*
G36*
X195000Y137508D02*
X194223Y137406D01*
X193500Y137106D01*
X192878Y136629D01*
X192402Y136008D01*
X192102Y135284D01*
X191999Y134508D01*
X192102Y133731D01*
X192402Y133008D01*
X192878Y132386D01*
X193500Y131909D01*
X194082Y131668D01*
Y50943D01*
X192405Y49265D01*
X192366Y49295D01*
X191466Y49668D01*
X190500Y49795D01*
X189534Y49668D01*
X188634Y49295D01*
X187861Y48702D01*
X187268Y47929D01*
X186895Y47029D01*
X186768Y46063D01*
X186895Y45097D01*
X187268Y44197D01*
X187861Y43424D01*
X188634Y42831D01*
X189534Y42458D01*
X190500Y42331D01*
X191466Y42458D01*
X192366Y42831D01*
X193139Y43424D01*
X193732Y44197D01*
X194105Y45097D01*
X194232Y46063D01*
X194105Y47029D01*
X193732Y47929D01*
X193702Y47968D01*
X195649Y49914D01*
X195848Y50212D01*
X195918Y50563D01*
Y131668D01*
X196500Y131909D01*
X197122Y132386D01*
X197599Y133008D01*
X197898Y133731D01*
X198001Y134508D01*
X197898Y135284D01*
X197599Y136008D01*
X197122Y136629D01*
X196500Y137106D01*
X195777Y137406D01*
X195000Y137508D01*
D02*
G37*
G36*
X180000Y63026D02*
X179217Y62923D01*
X178487Y62621D01*
X177860Y62140D01*
X177380Y61513D01*
X177077Y60783D01*
X176974Y60000D01*
X177077Y59217D01*
X177380Y58487D01*
X177860Y57860D01*
X178487Y57380D01*
X179082Y57133D01*
Y55943D01*
X172405Y49265D01*
X172366Y49295D01*
X171466Y49668D01*
X170500Y49795D01*
X169534Y49668D01*
X168634Y49295D01*
X167861Y48702D01*
X167268Y47929D01*
X166895Y47029D01*
X166768Y46063D01*
X166895Y45097D01*
X167268Y44197D01*
X167861Y43424D01*
X168634Y42831D01*
X169534Y42458D01*
X170500Y42331D01*
X171466Y42458D01*
X172366Y42831D01*
X173139Y43424D01*
X173732Y44197D01*
X174105Y45097D01*
X174232Y46063D01*
X174105Y47029D01*
X173732Y47929D01*
X173702Y47968D01*
X180649Y54914D01*
X180848Y55212D01*
X180918Y55563D01*
Y57133D01*
X181513Y57380D01*
X182140Y57860D01*
X182621Y58487D01*
X182923Y59217D01*
X183026Y60000D01*
X182923Y60783D01*
X182621Y61513D01*
X182140Y62140D01*
X181513Y62621D01*
X180783Y62923D01*
X180000Y63026D01*
D02*
G37*
G36*
X220500Y49795D02*
X219534Y49668D01*
X218634Y49295D01*
X217861Y48702D01*
X217268Y47929D01*
X216895Y47029D01*
X216768Y46063D01*
X216895Y45097D01*
X217268Y44197D01*
X217861Y43424D01*
X218634Y42831D01*
X219534Y42458D01*
X220500Y42331D01*
X221466Y42458D01*
X222366Y42831D01*
X223139Y43424D01*
X223732Y44197D01*
X224105Y45097D01*
X224232Y46063D01*
X224105Y47029D01*
X223732Y47929D01*
X223139Y48702D01*
X222366Y49295D01*
X221466Y49668D01*
X220500Y49795D01*
D02*
G37*
G36*
X210500D02*
X209534Y49668D01*
X208634Y49295D01*
X207861Y48702D01*
X207268Y47929D01*
X206895Y47029D01*
X206768Y46063D01*
X206895Y45097D01*
X207268Y44197D01*
X207861Y43424D01*
X208634Y42831D01*
X209534Y42458D01*
X210500Y42331D01*
X211466Y42458D01*
X212366Y42831D01*
X213139Y43424D01*
X213732Y44197D01*
X214105Y45097D01*
X214232Y46063D01*
X214105Y47029D01*
X213732Y47929D01*
X213139Y48702D01*
X212366Y49295D01*
X211466Y49668D01*
X210500Y49795D01*
D02*
G37*
G36*
X200500D02*
X199534Y49668D01*
X198634Y49295D01*
X197861Y48702D01*
X197268Y47929D01*
X196895Y47029D01*
X196768Y46063D01*
X196895Y45097D01*
X197268Y44197D01*
X197861Y43424D01*
X198634Y42831D01*
X199534Y42458D01*
X200500Y42331D01*
X201466Y42458D01*
X202366Y42831D01*
X203139Y43424D01*
X203732Y44197D01*
X204105Y45097D01*
X204232Y46063D01*
X204105Y47029D01*
X203732Y47929D01*
X203139Y48702D01*
X202366Y49295D01*
X201466Y49668D01*
X200500Y49795D01*
D02*
G37*
G36*
X180500D02*
X179534Y49668D01*
X178634Y49295D01*
X177861Y48702D01*
X177268Y47929D01*
X176895Y47029D01*
X176768Y46063D01*
X176895Y45097D01*
X177268Y44197D01*
X177861Y43424D01*
X178634Y42831D01*
X179534Y42458D01*
X180500Y42331D01*
X181466Y42458D01*
X182366Y42831D01*
X183139Y43424D01*
X183732Y44197D01*
X184105Y45097D01*
X184232Y46063D01*
X184105Y47029D01*
X183732Y47929D01*
X183139Y48702D01*
X182366Y49295D01*
X181466Y49668D01*
X180500Y49795D01*
D02*
G37*
G36*
X160500D02*
X159534Y49668D01*
X158634Y49295D01*
X157861Y48702D01*
X157268Y47929D01*
X156895Y47029D01*
X156768Y46063D01*
X156895Y45097D01*
X157268Y44197D01*
X157861Y43424D01*
X158634Y42831D01*
X159534Y42458D01*
X160500Y42331D01*
X161466Y42458D01*
X162366Y42831D01*
X163139Y43424D01*
X163732Y44197D01*
X164105Y45097D01*
X164232Y46063D01*
X164105Y47029D01*
X163732Y47929D01*
X163139Y48702D01*
X162366Y49295D01*
X161466Y49668D01*
X160500Y49795D01*
D02*
G37*
G36*
X150500D02*
X149534Y49668D01*
X148634Y49295D01*
X147861Y48702D01*
X147268Y47929D01*
X146895Y47029D01*
X146768Y46063D01*
X146895Y45097D01*
X147268Y44197D01*
X147861Y43424D01*
X148634Y42831D01*
X149534Y42458D01*
X150500Y42331D01*
X151466Y42458D01*
X152366Y42831D01*
X153139Y43424D01*
X153732Y44197D01*
X154105Y45097D01*
X154232Y46063D01*
X154105Y47029D01*
X153732Y47929D01*
X153139Y48702D01*
X152366Y49295D01*
X151466Y49668D01*
X150500Y49795D01*
D02*
G37*
G36*
X140500D02*
X139534Y49668D01*
X138634Y49295D01*
X137861Y48702D01*
X137268Y47929D01*
X136895Y47029D01*
X136768Y46063D01*
X136895Y45097D01*
X137268Y44197D01*
X137861Y43424D01*
X138634Y42831D01*
X139534Y42458D01*
X140500Y42331D01*
X141466Y42458D01*
X142366Y42831D01*
X143139Y43424D01*
X143732Y44197D01*
X144105Y45097D01*
X144232Y46063D01*
X144105Y47029D01*
X143732Y47929D01*
X143139Y48702D01*
X142366Y49295D01*
X141466Y49668D01*
X140500Y49795D01*
D02*
G37*
G36*
X130500D02*
X129534Y49668D01*
X128634Y49295D01*
X127861Y48702D01*
X127268Y47929D01*
X126895Y47029D01*
X126768Y46063D01*
X126895Y45097D01*
X127268Y44197D01*
X127861Y43424D01*
X128634Y42831D01*
X129534Y42458D01*
X130500Y42331D01*
X131466Y42458D01*
X132366Y42831D01*
X133139Y43424D01*
X133732Y44197D01*
X134105Y45097D01*
X134232Y46063D01*
X134105Y47029D01*
X133732Y47929D01*
X133139Y48702D01*
X132366Y49295D01*
X131466Y49668D01*
X130500Y49795D01*
D02*
G37*
G36*
X120500D02*
X119534Y49668D01*
X118634Y49295D01*
X117861Y48702D01*
X117268Y47929D01*
X116895Y47029D01*
X116768Y46063D01*
X116895Y45097D01*
X117268Y44197D01*
X117861Y43424D01*
X118634Y42831D01*
X119534Y42458D01*
X120500Y42331D01*
X121466Y42458D01*
X122366Y42831D01*
X123139Y43424D01*
X123732Y44197D01*
X124105Y45097D01*
X124232Y46063D01*
X124105Y47029D01*
X123732Y47929D01*
X123139Y48702D01*
X122366Y49295D01*
X121466Y49668D01*
X120500Y49795D01*
D02*
G37*
G36*
X110500D02*
X109534Y49668D01*
X108634Y49295D01*
X107861Y48702D01*
X107268Y47929D01*
X106895Y47029D01*
X106768Y46063D01*
X106895Y45097D01*
X107268Y44197D01*
X107861Y43424D01*
X108634Y42831D01*
X109534Y42458D01*
X110500Y42331D01*
X111466Y42458D01*
X112366Y42831D01*
X113139Y43424D01*
X113732Y44197D01*
X114105Y45097D01*
X114232Y46063D01*
X114105Y47029D01*
X113732Y47929D01*
X113139Y48702D01*
X112366Y49295D01*
X111466Y49668D01*
X110500Y49795D01*
D02*
G37*
G36*
X100500D02*
X99534Y49668D01*
X98634Y49295D01*
X97861Y48702D01*
X97268Y47929D01*
X96895Y47029D01*
X96768Y46063D01*
X96895Y45097D01*
X97268Y44197D01*
X97861Y43424D01*
X98634Y42831D01*
X99534Y42458D01*
X100500Y42331D01*
X101466Y42458D01*
X102366Y42831D01*
X103139Y43424D01*
X103732Y44197D01*
X104105Y45097D01*
X104232Y46063D01*
X104105Y47029D01*
X103732Y47929D01*
X103139Y48702D01*
X102366Y49295D01*
X101466Y49668D01*
X100500Y49795D01*
D02*
G37*
G36*
X78400Y48400D02*
X71600D01*
Y41600D01*
X78400D01*
Y48400D01*
D02*
G37*
G36*
X35000Y42944D02*
X34279Y42849D01*
X33607Y42570D01*
X33030Y42127D01*
X32587Y41550D01*
X32309Y40879D01*
X32214Y40157D01*
X32309Y39436D01*
X32587Y38765D01*
X33030Y38188D01*
X33607Y37745D01*
X34279Y37466D01*
X35000Y37371D01*
X35721Y37466D01*
X36393Y37745D01*
X36970Y38188D01*
X37413Y38765D01*
X37691Y39436D01*
X37786Y40157D01*
X37691Y40879D01*
X37413Y41550D01*
X36970Y42127D01*
X36393Y42570D01*
X35721Y42849D01*
X35000Y42944D01*
D02*
G37*
G36*
X55000Y43580D02*
X54073Y43458D01*
X53210Y43101D01*
X52468Y42532D01*
X51899Y41790D01*
X51542Y40927D01*
X51420Y40000D01*
X51542Y39073D01*
X51899Y38210D01*
X52468Y37468D01*
X53210Y36899D01*
X54073Y36542D01*
X55000Y36420D01*
X55927Y36542D01*
X56790Y36899D01*
X57532Y37468D01*
X58101Y38210D01*
X58458Y39073D01*
X58580Y40000D01*
X58458Y40927D01*
X58101Y41790D01*
X57532Y42532D01*
X56790Y43101D01*
X55927Y43458D01*
X55000Y43580D01*
D02*
G37*
G36*
X234200Y49763D02*
X226800D01*
Y43661D01*
X219057Y35918D01*
X88300D01*
X87970Y36715D01*
X87425Y37425D01*
X86715Y37970D01*
X85888Y38313D01*
X85000Y38429D01*
X84112Y38313D01*
X83285Y37970D01*
X82575Y37425D01*
X82030Y36715D01*
X81687Y35888D01*
X81571Y35000D01*
X81687Y34112D01*
X82030Y33285D01*
X82575Y32575D01*
X83285Y32030D01*
X84112Y31688D01*
X85000Y31571D01*
X85888Y31688D01*
X86715Y32030D01*
X87425Y32575D01*
X87970Y33285D01*
X88300Y34082D01*
X219437D01*
X219788Y34152D01*
X220086Y34351D01*
X228098Y42363D01*
X234200D01*
Y49763D01*
D02*
G37*
G36*
X75000Y38429D02*
X74112Y38313D01*
X73285Y37970D01*
X72575Y37425D01*
X72030Y36715D01*
X71688Y35888D01*
X71571Y35000D01*
X71688Y34112D01*
X72030Y33285D01*
X72575Y32575D01*
X73285Y32030D01*
X74112Y31688D01*
X75000Y31571D01*
X75888Y31688D01*
X76715Y32030D01*
X77425Y32575D01*
X77970Y33285D01*
X78312Y34112D01*
X78429Y35000D01*
X78312Y35888D01*
X77970Y36715D01*
X77425Y37425D01*
X76715Y37970D01*
X75888Y38313D01*
X75000Y38429D01*
D02*
G37*
G36*
X85000Y28429D02*
X84112Y28313D01*
X83285Y27970D01*
X82575Y27425D01*
X82030Y26715D01*
X81687Y25888D01*
X81571Y25000D01*
X81687Y24112D01*
X82030Y23285D01*
X82575Y22575D01*
X83285Y22030D01*
X84112Y21688D01*
X85000Y21571D01*
X85888Y21688D01*
X86715Y22030D01*
X87425Y22575D01*
X87970Y23285D01*
X88313Y24112D01*
X88429Y25000D01*
X88313Y25888D01*
X87970Y26715D01*
X87425Y27425D01*
X86715Y27970D01*
X85888Y28313D01*
X85000Y28429D01*
D02*
G37*
G36*
X75000D02*
X74112Y28313D01*
X73285Y27970D01*
X72575Y27425D01*
X72030Y26715D01*
X71688Y25888D01*
X71571Y25000D01*
X71688Y24112D01*
X72030Y23285D01*
X72575Y22575D01*
X73285Y22030D01*
X74112Y21688D01*
X75000Y21571D01*
X75888Y21688D01*
X76715Y22030D01*
X77425Y22575D01*
X77970Y23285D01*
X78312Y24112D01*
X78429Y25000D01*
X78312Y25888D01*
X77970Y26715D01*
X77425Y27425D01*
X76715Y27970D01*
X75888Y28313D01*
X75000Y28429D01*
D02*
G37*
G36*
X230500Y19795D02*
X229534Y19668D01*
X228634Y19295D01*
X227861Y18702D01*
X227268Y17929D01*
X226895Y17029D01*
X226768Y16063D01*
X226895Y15097D01*
X227268Y14197D01*
X227861Y13424D01*
X228634Y12831D01*
X229534Y12458D01*
X230500Y12331D01*
X231466Y12458D01*
X232366Y12831D01*
X233139Y13424D01*
X233732Y14197D01*
X234105Y15097D01*
X234232Y16063D01*
X234105Y17029D01*
X233732Y17929D01*
X233139Y18702D01*
X232366Y19295D01*
X231466Y19668D01*
X230500Y19795D01*
D02*
G37*
G36*
X220500D02*
X219534Y19668D01*
X218634Y19295D01*
X217861Y18702D01*
X217268Y17929D01*
X216895Y17029D01*
X216768Y16063D01*
X216895Y15097D01*
X217268Y14197D01*
X217861Y13424D01*
X218634Y12831D01*
X219534Y12458D01*
X220500Y12331D01*
X221466Y12458D01*
X222366Y12831D01*
X223139Y13424D01*
X223732Y14197D01*
X224105Y15097D01*
X224232Y16063D01*
X224105Y17029D01*
X223732Y17929D01*
X223139Y18702D01*
X222366Y19295D01*
X221466Y19668D01*
X220500Y19795D01*
D02*
G37*
G36*
X210500D02*
X209534Y19668D01*
X208634Y19295D01*
X207861Y18702D01*
X207268Y17929D01*
X206895Y17029D01*
X206768Y16063D01*
X206895Y15097D01*
X207268Y14197D01*
X207861Y13424D01*
X208634Y12831D01*
X209534Y12458D01*
X210500Y12331D01*
X211466Y12458D01*
X212366Y12831D01*
X213139Y13424D01*
X213732Y14197D01*
X214105Y15097D01*
X214232Y16063D01*
X214105Y17029D01*
X213732Y17929D01*
X213139Y18702D01*
X212366Y19295D01*
X211466Y19668D01*
X210500Y19795D01*
D02*
G37*
G36*
X200500D02*
X199534Y19668D01*
X198634Y19295D01*
X197861Y18702D01*
X197268Y17929D01*
X196895Y17029D01*
X196768Y16063D01*
X196895Y15097D01*
X197268Y14197D01*
X197861Y13424D01*
X198634Y12831D01*
X199534Y12458D01*
X200500Y12331D01*
X201466Y12458D01*
X202366Y12831D01*
X203139Y13424D01*
X203732Y14197D01*
X204105Y15097D01*
X204232Y16063D01*
X204105Y17029D01*
X203732Y17929D01*
X203139Y18702D01*
X202366Y19295D01*
X201466Y19668D01*
X200500Y19795D01*
D02*
G37*
G36*
X190500D02*
X189534Y19668D01*
X188634Y19295D01*
X187861Y18702D01*
X187268Y17929D01*
X186895Y17029D01*
X186768Y16063D01*
X186895Y15097D01*
X187268Y14197D01*
X187861Y13424D01*
X188634Y12831D01*
X189534Y12458D01*
X190500Y12331D01*
X191466Y12458D01*
X192366Y12831D01*
X193139Y13424D01*
X193732Y14197D01*
X194105Y15097D01*
X194232Y16063D01*
X194105Y17029D01*
X193732Y17929D01*
X193139Y18702D01*
X192366Y19295D01*
X191466Y19668D01*
X190500Y19795D01*
D02*
G37*
G36*
X180500D02*
X179534Y19668D01*
X178634Y19295D01*
X177861Y18702D01*
X177268Y17929D01*
X176895Y17029D01*
X176768Y16063D01*
X176895Y15097D01*
X177268Y14197D01*
X177861Y13424D01*
X178634Y12831D01*
X179534Y12458D01*
X180500Y12331D01*
X181466Y12458D01*
X182366Y12831D01*
X183139Y13424D01*
X183732Y14197D01*
X184105Y15097D01*
X184232Y16063D01*
X184105Y17029D01*
X183732Y17929D01*
X183139Y18702D01*
X182366Y19295D01*
X181466Y19668D01*
X180500Y19795D01*
D02*
G37*
G36*
X160500D02*
X159534Y19668D01*
X158634Y19295D01*
X157861Y18702D01*
X157268Y17929D01*
X156895Y17029D01*
X156768Y16063D01*
X156895Y15097D01*
X157268Y14197D01*
X157861Y13424D01*
X158634Y12831D01*
X159534Y12458D01*
X160500Y12331D01*
X161466Y12458D01*
X162366Y12831D01*
X163139Y13424D01*
X163732Y14197D01*
X164105Y15097D01*
X164232Y16063D01*
X164105Y17029D01*
X163732Y17929D01*
X163139Y18702D01*
X162366Y19295D01*
X161466Y19668D01*
X160500Y19795D01*
D02*
G37*
G36*
X150500D02*
X149534Y19668D01*
X148634Y19295D01*
X147861Y18702D01*
X147268Y17929D01*
X146895Y17029D01*
X146768Y16063D01*
X146895Y15097D01*
X147268Y14197D01*
X147861Y13424D01*
X148634Y12831D01*
X149534Y12458D01*
X150500Y12331D01*
X151466Y12458D01*
X152366Y12831D01*
X153139Y13424D01*
X153732Y14197D01*
X154105Y15097D01*
X154232Y16063D01*
X154105Y17029D01*
X153732Y17929D01*
X153139Y18702D01*
X152366Y19295D01*
X151466Y19668D01*
X150500Y19795D01*
D02*
G37*
G36*
X140500D02*
X139534Y19668D01*
X138634Y19295D01*
X137861Y18702D01*
X137268Y17929D01*
X136895Y17029D01*
X136768Y16063D01*
X136895Y15097D01*
X137268Y14197D01*
X137861Y13424D01*
X138634Y12831D01*
X139534Y12458D01*
X140500Y12331D01*
X141466Y12458D01*
X142366Y12831D01*
X143139Y13424D01*
X143732Y14197D01*
X144105Y15097D01*
X144232Y16063D01*
X144105Y17029D01*
X143732Y17929D01*
X143139Y18702D01*
X142366Y19295D01*
X141466Y19668D01*
X140500Y19795D01*
D02*
G37*
G36*
X130500D02*
X129534Y19668D01*
X128634Y19295D01*
X127861Y18702D01*
X127268Y17929D01*
X126895Y17029D01*
X126768Y16063D01*
X126895Y15097D01*
X127268Y14197D01*
X127861Y13424D01*
X128634Y12831D01*
X129534Y12458D01*
X130500Y12331D01*
X131466Y12458D01*
X132366Y12831D01*
X133139Y13424D01*
X133732Y14197D01*
X134105Y15097D01*
X134232Y16063D01*
X134105Y17029D01*
X133732Y17929D01*
X133139Y18702D01*
X132366Y19295D01*
X131466Y19668D01*
X130500Y19795D01*
D02*
G37*
G36*
X120500D02*
X119534Y19668D01*
X118634Y19295D01*
X117861Y18702D01*
X117268Y17929D01*
X116895Y17029D01*
X116768Y16063D01*
X116895Y15097D01*
X117268Y14197D01*
X117861Y13424D01*
X118634Y12831D01*
X119534Y12458D01*
X120500Y12331D01*
X121466Y12458D01*
X122366Y12831D01*
X123139Y13424D01*
X123732Y14197D01*
X124105Y15097D01*
X124232Y16063D01*
X124105Y17029D01*
X123732Y17929D01*
X123139Y18702D01*
X122366Y19295D01*
X121466Y19668D01*
X120500Y19795D01*
D02*
G37*
G36*
X110500D02*
X109534Y19668D01*
X108634Y19295D01*
X107861Y18702D01*
X107268Y17929D01*
X106895Y17029D01*
X106768Y16063D01*
X106895Y15097D01*
X107268Y14197D01*
X107861Y13424D01*
X108634Y12831D01*
X109534Y12458D01*
X110500Y12331D01*
X111466Y12458D01*
X112366Y12831D01*
X113139Y13424D01*
X113732Y14197D01*
X114105Y15097D01*
X114232Y16063D01*
X114105Y17029D01*
X113732Y17929D01*
X113139Y18702D01*
X112366Y19295D01*
X111466Y19668D01*
X110500Y19795D01*
D02*
G37*
G36*
X100500D02*
X99534Y19668D01*
X98634Y19295D01*
X97861Y18702D01*
X97268Y17929D01*
X96895Y17029D01*
X96768Y16063D01*
X96895Y15097D01*
X97268Y14197D01*
X97861Y13424D01*
X98634Y12831D01*
X99534Y12458D01*
X100500Y12331D01*
X101466Y12458D01*
X102366Y12831D01*
X103139Y13424D01*
X103732Y14197D01*
X104105Y15097D01*
X104232Y16063D01*
X104105Y17029D01*
X103732Y17929D01*
X103139Y18702D01*
X102366Y19295D01*
X101466Y19668D01*
X100500Y19795D01*
D02*
G37*
%LPD*%
D12*
X170500Y46063D02*
X180000Y55563D01*
Y60000D01*
X190500Y46063D02*
X195000Y50563D01*
Y134508D01*
X219437Y35000D02*
X230500Y46063D01*
X85000Y35000D02*
X219437D01*
D38*
X55000Y40000D02*
D03*
Y50000D02*
D03*
X195000Y195000D02*
D03*
X205000D02*
D03*
D39*
X55000Y60000D02*
D03*
D40*
X215000Y195000D02*
D03*
D41*
X35000Y50000D02*
D03*
Y40157D02*
D03*
X205000Y105157D02*
D03*
Y115000D02*
D03*
X190000Y245000D02*
D03*
X35000Y235000D02*
D03*
D42*
X120000Y215000D02*
D03*
D43*
X110000D02*
D03*
X100000D02*
D03*
D44*
X90000Y155000D02*
D03*
X168740D02*
D03*
Y130000D02*
D03*
X90000D02*
D03*
D45*
X120000Y90000D02*
D03*
X110000D02*
D03*
X95000D02*
D03*
X85000D02*
D03*
D46*
Y190000D02*
D03*
X144055D02*
D03*
D47*
X135000Y65000D02*
D03*
X154213D02*
D03*
D48*
X220000Y245000D02*
D03*
X65000Y235000D02*
D03*
D49*
X195000Y165492D02*
D03*
X205000D02*
D03*
X185000D02*
D03*
X215000D02*
D03*
Y134508D02*
D03*
X195000D02*
D03*
X205000D02*
D03*
D50*
X185000D02*
D03*
D51*
X100000Y270000D02*
D03*
X115000Y260000D02*
D03*
X75000Y45000D02*
D03*
D52*
X100000Y260000D02*
D03*
X115000Y270000D02*
D03*
X75000Y35000D02*
D03*
Y25000D02*
D03*
X85000D02*
D03*
Y35000D02*
D03*
Y45000D02*
D03*
D53*
X70000Y150000D02*
D03*
X20000D02*
D03*
X140000Y105000D02*
D03*
X185000Y85000D02*
D03*
X180000Y60000D02*
D03*
D54*
X230500Y16063D02*
D03*
X220500D02*
D03*
X210500D02*
D03*
X200500D02*
D03*
X190500D02*
D03*
X180500D02*
D03*
X170500D02*
D03*
X160500D02*
D03*
X150500D02*
D03*
X140500D02*
D03*
X130500D02*
D03*
X120500D02*
D03*
X110500D02*
D03*
X100500D02*
D03*
Y46063D02*
D03*
X110500D02*
D03*
X120500D02*
D03*
X130500D02*
D03*
X140500D02*
D03*
X150500D02*
D03*
X160500D02*
D03*
X170500D02*
D03*
X180500D02*
D03*
X190500D02*
D03*
X200500D02*
D03*
X210500D02*
D03*
X220500D02*
D03*
D55*
X230500D02*
D03*
M02*
