G04*
G04 #@! TF.GenerationSoftware,Altium Limited,Altium Designer,19.1.7 (138)*
G04*
G04 Layer_Color=255*
%FSLAX25Y25*%
%MOIN*%
G70*
G01*
G75*
%ADD38C,0.06299*%
%ADD39R,0.06299X0.06299*%
%ADD40R,0.06299X0.06299*%
%ADD41C,0.04724*%
%ADD42R,0.06693X0.06693*%
%ADD43C,0.06693*%
%ADD44C,0.05906*%
%ADD45C,0.06299*%
%ADD46C,0.08661*%
%ADD47C,0.04449*%
%ADD48R,0.04724X0.04724*%
%ADD49C,0.05150*%
%ADD50R,0.05150X0.05150*%
%ADD51R,0.06000X0.06000*%
%ADD52C,0.06000*%
%ADD53C,0.05000*%
%ADD54C,0.06600*%
%ADD55R,0.06600X0.06600*%
D38*
X55000Y40000D02*
D03*
Y50000D02*
D03*
X195000Y195000D02*
D03*
X205000D02*
D03*
D39*
X55000Y60000D02*
D03*
D40*
X215000Y195000D02*
D03*
D41*
X35000Y50000D02*
D03*
Y40157D02*
D03*
X205000Y105157D02*
D03*
Y115000D02*
D03*
X190000Y245000D02*
D03*
X35000Y235000D02*
D03*
D42*
X120000Y215000D02*
D03*
D43*
X110000D02*
D03*
X100000D02*
D03*
D44*
X90000Y155000D02*
D03*
X168740D02*
D03*
Y130000D02*
D03*
X90000D02*
D03*
D45*
X120000Y90000D02*
D03*
X110000D02*
D03*
X95000D02*
D03*
X85000D02*
D03*
D46*
Y190000D02*
D03*
X144055D02*
D03*
D47*
X135000Y65000D02*
D03*
X154213D02*
D03*
D48*
X220000Y245000D02*
D03*
X65000Y235000D02*
D03*
D49*
X195000Y165492D02*
D03*
X205000D02*
D03*
X185000D02*
D03*
X215000D02*
D03*
Y134508D02*
D03*
X195000D02*
D03*
X205000D02*
D03*
D50*
X185000D02*
D03*
D51*
X100000Y270000D02*
D03*
X115000Y260000D02*
D03*
X75000Y45000D02*
D03*
D52*
X100000Y260000D02*
D03*
X115000Y270000D02*
D03*
X75000Y35000D02*
D03*
Y25000D02*
D03*
X85000D02*
D03*
Y35000D02*
D03*
Y45000D02*
D03*
D53*
X70000Y150000D02*
D03*
X20000D02*
D03*
D54*
X230500Y16063D02*
D03*
X220500D02*
D03*
X210500D02*
D03*
X200500D02*
D03*
X190500D02*
D03*
X180500D02*
D03*
X170500D02*
D03*
X160500D02*
D03*
X150500D02*
D03*
X140500D02*
D03*
X130500D02*
D03*
X120500D02*
D03*
X110500D02*
D03*
X100500D02*
D03*
Y46063D02*
D03*
X110500D02*
D03*
X120500D02*
D03*
X130500D02*
D03*
X140500D02*
D03*
X150500D02*
D03*
X160500D02*
D03*
X170500D02*
D03*
X180500D02*
D03*
X190500D02*
D03*
X200500D02*
D03*
X210500D02*
D03*
X220500D02*
D03*
D55*
X230500D02*
D03*
M02*
