G04*
G04 #@! TF.GenerationSoftware,Altium Limited,Altium Designer,19.1.7 (138)*
G04*
G04 Layer_Color=65535*
%FSLAX25Y25*%
%MOIN*%
G70*
G01*
G75*
%ADD10C,0.00984*%
%ADD11C,0.00500*%
%ADD12C,0.01000*%
%ADD13C,0.00787*%
%ADD14C,0.00600*%
%ADD15C,0.00591*%
D10*
X50768Y68504D02*
G03*
X50768Y68504I-492J0D01*
G01*
X223996Y199724D02*
G03*
X223996Y199724I-492J0D01*
G01*
X133327Y215000D02*
G03*
X133327Y215000I-492J0D01*
G01*
D11*
X120709Y111653D02*
G03*
X109291Y111653I-5709J0D01*
G01*
X95709D02*
G03*
X84291Y111653I-5709J0D01*
G01*
X120709Y107323D02*
Y111653D01*
X109291Y107323D02*
Y111653D01*
X123661Y82126D02*
Y107323D01*
X106339D02*
X123661D01*
X106339Y82126D02*
Y107323D01*
Y82126D02*
X123661D01*
X95709Y107323D02*
Y111653D01*
X84291Y107323D02*
Y111653D01*
X98661Y82126D02*
Y107323D01*
X81339D02*
X98661D01*
X81339Y82126D02*
Y107323D01*
Y82126D02*
X98661D01*
X218898Y137480D02*
Y162520D01*
X181102Y137480D02*
Y162520D01*
D12*
X134713Y74055D02*
G03*
X134713Y55945I0J-9055D01*
G01*
X154213D02*
G03*
X154213Y74055I0J9055D01*
G01*
X134713D02*
X154213D01*
X134713Y55945D02*
X154213D01*
X95000Y240000D02*
X105000D01*
Y250000D02*
Y260000D01*
X95000D02*
X105000D01*
X95000Y240000D02*
Y260000D01*
X105000Y240000D02*
Y250000D01*
X110000Y260000D02*
X120000D01*
X110000Y240000D02*
Y250000D01*
Y240000D02*
X120000D01*
Y260000D01*
X110000Y250000D02*
Y260000D01*
X70000Y20000D02*
X90000D01*
X70000D02*
Y50000D01*
X75000D01*
X90000D01*
Y20000D02*
Y50000D01*
X15000Y100000D02*
Y200000D01*
Y100000D02*
X75000D01*
X15000Y200000D02*
X75000D01*
Y150000D02*
Y200000D01*
Y100000D02*
Y150000D01*
X87640Y168237D02*
Y174235D01*
X90639D01*
X91639Y173235D01*
Y171236D01*
X90639Y170236D01*
X87640D01*
X89640D02*
X91639Y168237D01*
X93638D02*
X95638D01*
X94638D01*
Y174235D01*
X93638Y173235D01*
X98637Y168237D02*
X100636D01*
X99636D01*
Y174235D01*
X98637Y173235D01*
X70500Y59498D02*
X72499D01*
X71500D01*
Y53500D01*
X70500D01*
X72499D01*
X79497Y58498D02*
X78497Y59498D01*
X76498D01*
X75498Y58498D01*
Y54500D01*
X76498Y53500D01*
X78497D01*
X79497Y54500D01*
X85495Y58498D02*
X84496Y59498D01*
X82496D01*
X81496Y58498D01*
Y57499D01*
X82496Y56499D01*
X84496D01*
X85495Y55499D01*
Y54500D01*
X84496Y53500D01*
X82496D01*
X81496Y54500D01*
X87494Y53500D02*
Y59498D01*
X90494D01*
X91493Y58498D01*
Y56499D01*
X90494Y55499D01*
X87494D01*
X95500Y269498D02*
Y264500D01*
X96500Y263500D01*
X98499D01*
X99499Y264500D01*
Y269498D01*
X101498Y263500D02*
X103497D01*
X102498D01*
Y269498D01*
X101498Y268498D01*
X110500Y269498D02*
Y264500D01*
X111500Y263500D01*
X113499D01*
X114499Y264500D01*
Y269498D01*
X120497Y263500D02*
X116498D01*
X120497Y267499D01*
Y268498D01*
X119497Y269498D01*
X117498D01*
X116498Y268498D01*
X180000Y180998D02*
Y176000D01*
X181000Y175000D01*
X182999D01*
X183999Y176000D01*
Y180998D01*
X189997D02*
X187997Y179998D01*
X185998Y177999D01*
Y176000D01*
X186998Y175000D01*
X188997D01*
X189997Y176000D01*
Y176999D01*
X188997Y177999D01*
X185998D01*
X97700Y58761D02*
Y53763D01*
X98700Y52763D01*
X100699D01*
X101699Y53763D01*
Y58761D01*
X107697D02*
X103698D01*
Y55762D01*
X105697Y56762D01*
X106697D01*
X107697Y55762D01*
Y53763D01*
X106697Y52763D01*
X104698D01*
X103698Y53763D01*
X126113Y83598D02*
X130111Y77600D01*
Y83598D02*
X126113Y77600D01*
X132111D02*
X134110D01*
X133110D01*
Y83598D01*
X132111Y82598D01*
X185000Y211372D02*
Y206374D01*
X186000Y205374D01*
X187999D01*
X188999Y206374D01*
Y211372D01*
X193997Y205374D02*
Y211372D01*
X190998Y208373D01*
X194997D01*
X40000Y80998D02*
Y76000D01*
X41000Y75000D01*
X42999D01*
X43999Y76000D01*
Y80998D01*
X45998Y79998D02*
X46998Y80998D01*
X48997D01*
X49997Y79998D01*
Y78999D01*
X48997Y77999D01*
X47997D01*
X48997D01*
X49997Y76999D01*
Y76000D01*
X48997Y75000D01*
X46998D01*
X45998Y76000D01*
X186074Y68100D02*
Y74098D01*
X189073D01*
X190073Y73098D01*
Y71099D01*
X189073Y70099D01*
X186074D01*
X188073D02*
X190073Y68100D01*
X192072D02*
X194071D01*
X193072D01*
Y74098D01*
X192072Y73098D01*
X197071D02*
X198070Y74098D01*
X200069D01*
X201069Y73098D01*
Y69100D01*
X200069Y68100D01*
X198070D01*
X197071Y69100D01*
Y73098D01*
X160000Y225000D02*
Y230998D01*
X162999D01*
X163999Y229998D01*
Y227999D01*
X162999Y226999D01*
X160000D01*
X161999D02*
X163999Y225000D01*
X165998Y226000D02*
X166998Y225000D01*
X168997D01*
X169997Y226000D01*
Y229998D01*
X168997Y230998D01*
X166998D01*
X165998Y229998D01*
Y228999D01*
X166998Y227999D01*
X169997D01*
X165000Y110000D02*
Y115998D01*
X167999D01*
X168999Y114998D01*
Y112999D01*
X167999Y111999D01*
X165000D01*
X166999D02*
X168999Y110000D01*
X170998Y114998D02*
X171998Y115998D01*
X173997D01*
X174997Y114998D01*
Y113999D01*
X173997Y112999D01*
X174997Y111999D01*
Y111000D01*
X173997Y110000D01*
X171998D01*
X170998Y111000D01*
Y111999D01*
X171998Y112999D01*
X170998Y113999D01*
Y114998D01*
X171998Y112999D02*
X173997D01*
X235000Y153937D02*
X240998D01*
Y150938D01*
X239998Y149938D01*
X237999D01*
X236999Y150938D01*
Y153937D01*
Y151938D02*
X235000Y149938D01*
X240998Y147939D02*
Y143940D01*
X239998D01*
X236000Y147939D01*
X235000D01*
X191074Y93100D02*
Y99098D01*
X194073D01*
X195073Y98098D01*
Y96099D01*
X194073Y95099D01*
X191074D01*
X193073D02*
X195073Y93100D01*
X201071Y99098D02*
X199071Y98098D01*
X197072Y96099D01*
Y94100D01*
X198072Y93100D01*
X200071D01*
X201071Y94100D01*
Y95099D01*
X200071Y96099D01*
X197072D01*
X90000Y65000D02*
Y70998D01*
X92999D01*
X93999Y69998D01*
Y67999D01*
X92999Y66999D01*
X90000D01*
X91999D02*
X93999Y65000D01*
X99997Y70998D02*
X95998D01*
Y67999D01*
X97997Y68999D01*
X98997D01*
X99997Y67999D01*
Y66000D01*
X98997Y65000D01*
X96998D01*
X95998Y66000D01*
X70000Y65000D02*
Y70998D01*
X72999D01*
X73999Y69998D01*
Y67999D01*
X72999Y66999D01*
X70000D01*
X71999D02*
X73999Y65000D01*
X78997D02*
Y70998D01*
X75998Y67999D01*
X79997D01*
X87640Y143237D02*
Y149235D01*
X90639D01*
X91639Y148235D01*
Y146236D01*
X90639Y145236D01*
X87640D01*
X89640D02*
X91639Y143237D01*
X93638D02*
X95638D01*
X94638D01*
Y149235D01*
X93638Y148235D01*
X143999Y211000D02*
Y214998D01*
X142999Y215998D01*
X141000D01*
X140000Y214998D01*
Y211000D01*
X141000Y210000D01*
X142999D01*
X141999Y211999D02*
X143999Y210000D01*
X142999D02*
X143999Y211000D01*
X145998Y210000D02*
X147997D01*
X146998D01*
Y215998D01*
X145998Y214998D01*
X55000Y95998D02*
Y90000D01*
X58999D01*
X64997Y95998D02*
X60998D01*
Y90000D01*
X64997D01*
X60998Y92999D02*
X62997D01*
X66996Y95998D02*
Y90000D01*
X69995D01*
X70995Y91000D01*
Y94998D01*
X69995Y95998D01*
X66996D01*
X76993Y90000D02*
X72994D01*
X76993Y93999D01*
Y94998D01*
X75993Y95998D01*
X73994D01*
X72994Y94998D01*
X125000Y95998D02*
Y90000D01*
X128999D01*
X134997Y95998D02*
X130998D01*
Y90000D01*
X134997D01*
X130998Y92999D02*
X132997D01*
X136996Y95998D02*
Y90000D01*
X139995D01*
X140995Y91000D01*
Y94998D01*
X139995Y95998D01*
X136996D01*
X142994Y90000D02*
X144993D01*
X143994D01*
Y95998D01*
X142994Y94998D01*
X15500Y209498D02*
Y203500D01*
X19499D01*
X21498D02*
X23497D01*
X22498D01*
Y209498D01*
X21498Y208498D01*
X135000Y180998D02*
Y175000D01*
X137999D01*
X138999Y176000D01*
Y179998D01*
X137999Y180998D01*
X135000D01*
X140998Y175000D02*
X142997D01*
X141998D01*
Y180998D01*
X140998Y179998D01*
X202599Y128456D02*
X201599Y129455D01*
X199600D01*
X198600Y128456D01*
Y124457D01*
X199600Y123458D01*
X201599D01*
X202599Y124457D01*
X207597Y123458D02*
Y129455D01*
X204598Y126456D01*
X208597D01*
X33999Y64998D02*
X32999Y65998D01*
X31000D01*
X30000Y64998D01*
Y61000D01*
X31000Y60000D01*
X32999D01*
X33999Y61000D01*
X35998Y64998D02*
X36998Y65998D01*
X38997D01*
X39997Y64998D01*
Y63999D01*
X38997Y62999D01*
X37997D01*
X38997D01*
X39997Y61999D01*
Y61000D01*
X38997Y60000D01*
X36998D01*
X35998Y61000D01*
X24599Y273398D02*
X23599Y274398D01*
X21600D01*
X20600Y273398D01*
Y269400D01*
X21600Y268400D01*
X23599D01*
X24599Y269400D01*
X30597Y268400D02*
X26598D01*
X30597Y272399D01*
Y273398D01*
X29597Y274398D01*
X27598D01*
X26598Y273398D01*
X173999Y274998D02*
X172999Y275998D01*
X171000D01*
X170000Y274998D01*
Y271000D01*
X171000Y270000D01*
X172999D01*
X173999Y271000D01*
X175998Y270000D02*
X177997D01*
X176998D01*
Y275998D01*
X175998Y274998D01*
D13*
X235000Y245000D02*
G03*
X235000Y245000I-30000J0D01*
G01*
X181299Y130905D02*
G03*
X181299Y130905I-394J0D01*
G01*
X80000Y235000D02*
G03*
X80000Y235000I-30000J0D01*
G01*
X47717Y28937D02*
X66220D01*
X47717Y71063D02*
X66220D01*
X47717Y28937D02*
Y71063D01*
X66220Y28937D02*
Y71063D01*
X64252Y28937D02*
Y71063D01*
X183937Y183780D02*
Y202284D01*
X226063Y183780D02*
Y202284D01*
X183937D02*
X226063D01*
X183937Y183780D02*
X226063D01*
X183937Y185748D02*
X226063D01*
X35000Y35138D02*
X42000D01*
Y55020D01*
X28000D02*
X42000D01*
X28000Y35138D02*
Y55020D01*
Y35138D02*
X35000D01*
Y44882D02*
Y55020D01*
Y35138D02*
Y45276D01*
X155000Y102441D02*
Y107559D01*
X130276Y204449D02*
Y222165D01*
X89724Y204449D02*
Y222165D01*
X130276D01*
X89724Y204449D02*
X130276D01*
X89724Y206417D02*
X130276D01*
X153287Y155000D02*
X162835D01*
X95906D02*
X105453D01*
X153287D02*
Y164842D01*
X105453D02*
X153287D01*
X105453Y145158D02*
Y164842D01*
Y145158D02*
X153287D01*
Y155000D01*
X102441Y70000D02*
X107559D01*
X82441Y71063D02*
X87559D01*
X101831Y190000D02*
Y202500D01*
X127224D01*
Y176500D02*
Y202500D01*
X101831Y176500D02*
X127224D01*
X101831D02*
Y190000D01*
X120000Y176500D02*
X120138Y202500D01*
X127224Y190000D02*
X135394D01*
X93661D02*
X101831D01*
X198000Y120020D02*
X205000D01*
X198000Y100138D02*
Y120020D01*
Y100138D02*
X212000D01*
Y120020D01*
X205000D02*
X212000D01*
X205000Y100138D02*
Y110276D01*
Y109882D02*
Y120020D01*
X153287Y120158D02*
Y130000D01*
X105453Y120158D02*
X153287D01*
X105453D02*
Y139842D01*
X153287D01*
Y130000D02*
Y139842D01*
X95906Y130000D02*
X105453D01*
X153287D02*
X162835D01*
X227441Y148937D02*
X232559D01*
X165000Y217441D02*
Y222559D01*
X193937Y57441D02*
Y62559D01*
X198937Y82441D02*
Y87559D01*
D14*
X234000Y32263D02*
G03*
X234000Y29863I0J-1200D01*
G01*
Y32263D02*
Y40863D01*
Y29863D02*
Y32263D01*
Y19863D02*
Y29863D01*
X97000Y19863D02*
Y42263D01*
D15*
X237015Y245051D02*
X240951D01*
X238983Y247019D02*
Y243083D01*
X82015Y235051D02*
X85951D01*
X83983Y237019D02*
Y233083D01*
M02*
