G04*
G04 #@! TF.GenerationSoftware,Altium Limited,Altium Designer,19.1.7 (138)*
G04*
G04 Layer_Color=32896*
%FSLAX25Y25*%
%MOIN*%
G70*
G01*
G75*
%ADD11C,0.00500*%
%ADD56C,0.00000*%
D11*
X185574Y141063D02*
G03*
X185574Y141063I-1519J0D01*
G01*
D02*
G03*
X185574Y141063I-1519J0D01*
G01*
X181102Y162520D02*
X218898D01*
X181102Y137480D02*
X218898D01*
X181102Y162520D02*
X218898D01*
X181102Y137480D02*
X218898D01*
D56*
X234000Y32263D02*
G03*
X234000Y29863I0J-1200D01*
G01*
Y32263D02*
G03*
X234000Y29863I0J-1200D01*
G01*
X97000Y45863D02*
X234000D01*
Y32263D02*
Y45863D01*
Y29863D02*
Y32263D01*
Y16263D02*
Y29863D01*
X97000Y16263D02*
X234000D01*
X97000D02*
Y45863D01*
X232700Y13863D02*
Y16363D01*
X228300Y13863D02*
X232700D01*
X228300D02*
Y16363D01*
X232700D01*
X222700Y13863D02*
Y16363D01*
X218300Y13863D02*
X222700D01*
X218300D02*
Y16363D01*
X222700D01*
X212700Y13863D02*
Y16363D01*
X208300Y13863D02*
X212700D01*
X208300D02*
Y16363D01*
X212700D01*
X202700Y13863D02*
Y16363D01*
X198300Y13863D02*
X202700D01*
X198300D02*
Y16363D01*
X202700D01*
X192700Y13863D02*
Y16363D01*
X188300Y13863D02*
X192700D01*
X188300D02*
Y16363D01*
X192700D01*
X182700Y13863D02*
Y16363D01*
X178300Y13863D02*
X182700D01*
X178300D02*
Y16363D01*
X182700D01*
X172700Y13863D02*
Y16363D01*
X168300Y13863D02*
X172700D01*
X168300D02*
Y16363D01*
X172700D01*
X162700Y13863D02*
Y16363D01*
X158300Y13863D02*
X162700D01*
X158300D02*
Y16363D01*
X162700D01*
X152700Y13863D02*
Y16363D01*
X148300Y13863D02*
X152700D01*
X148300D02*
Y16363D01*
X152700D01*
X142700Y13863D02*
Y16363D01*
X138300Y13863D02*
X142700D01*
X138300D02*
Y16363D01*
X142700D01*
X132700Y13863D02*
Y16363D01*
X128300Y13863D02*
X132700D01*
X128300D02*
Y16363D01*
X132700D01*
X122700Y13863D02*
Y16363D01*
X118300Y13863D02*
X122700D01*
X118300D02*
Y16363D01*
X122700D01*
X112700Y13863D02*
Y16363D01*
X108300Y13863D02*
X112700D01*
X108300D02*
Y16263D01*
X112700Y16363D01*
X102700Y13863D02*
Y16363D01*
X98300Y13863D02*
X102700D01*
X98300D02*
Y16263D01*
X102700Y16363D01*
X98300Y45763D02*
Y48263D01*
X102700D01*
Y45763D02*
Y48263D01*
X98300Y45763D02*
X102700D01*
X108300D02*
Y48263D01*
X112700D01*
Y45763D02*
Y48263D01*
X108300Y45763D02*
X112700D01*
X118300D02*
Y48263D01*
X122700D01*
Y45763D02*
Y48263D01*
X118300Y45763D02*
X122700D01*
X128300D02*
Y48263D01*
X132700D01*
Y45763D02*
Y48263D01*
X128300Y45763D02*
X132700D01*
X138300D02*
Y48263D01*
X142700D01*
Y45763D02*
Y48263D01*
X138300Y45763D02*
X142700D01*
X148300D02*
Y48263D01*
X152700D01*
Y45863D02*
Y48263D01*
X148300Y45763D02*
X152700Y45863D01*
X158300D02*
Y48263D01*
X162700D01*
Y45863D02*
Y48263D01*
X158300Y45863D02*
X162700D01*
X168300D02*
Y48263D01*
X172700D01*
Y45863D02*
Y48263D01*
X168300Y45863D02*
X172700D01*
X178300D02*
Y48263D01*
X182700D01*
Y45863D02*
Y48263D01*
X178300Y45863D02*
X182700D01*
X188300D02*
Y48263D01*
X192700D01*
Y45863D02*
Y48263D01*
X188300Y45863D02*
X192700D01*
X198300D02*
Y48263D01*
X202700D01*
Y45863D02*
Y48263D01*
X198300Y45863D02*
X202700D01*
X208300D02*
Y48263D01*
X212700D01*
Y45863D02*
Y48263D01*
X208300Y45863D02*
X212700D01*
X218300D02*
Y48263D01*
X222700D01*
Y45863D02*
Y48263D01*
X218300Y45863D02*
X222700D01*
X228300D02*
Y48263D01*
X232700D01*
Y45863D02*
Y48263D01*
X228300Y45863D02*
X232700D01*
X97000D02*
X234000D01*
Y32263D02*
Y45863D01*
Y29863D02*
Y32263D01*
Y16263D02*
Y29863D01*
X97000Y16263D02*
X234000D01*
X97000D02*
Y45863D01*
X232700Y13863D02*
Y16363D01*
X228300Y13863D02*
X232700D01*
X228300D02*
Y16363D01*
X232700D01*
X222700Y13863D02*
Y16363D01*
X218300Y13863D02*
X222700D01*
X218300D02*
Y16363D01*
X222700D01*
X212700Y13863D02*
Y16363D01*
X208300Y13863D02*
X212700D01*
X208300D02*
Y16363D01*
X212700D01*
X202700Y13863D02*
Y16363D01*
X198300Y13863D02*
X202700D01*
X198300D02*
Y16363D01*
X202700D01*
X192700Y13863D02*
Y16363D01*
X188300Y13863D02*
X192700D01*
X188300D02*
Y16363D01*
X192700D01*
X182700Y13863D02*
Y16363D01*
X178300Y13863D02*
X182700D01*
X178300D02*
Y16363D01*
X182700D01*
X172700Y13863D02*
Y16363D01*
X168300Y13863D02*
X172700D01*
X168300D02*
Y16363D01*
X172700D01*
X162700Y13863D02*
Y16363D01*
X158300Y13863D02*
X162700D01*
X158300D02*
Y16363D01*
X162700D01*
X152700Y13863D02*
Y16363D01*
X148300Y13863D02*
X152700D01*
X148300D02*
Y16363D01*
X152700D01*
X142700Y13863D02*
Y16363D01*
X138300Y13863D02*
X142700D01*
X138300D02*
Y16363D01*
X142700D01*
X132700Y13863D02*
Y16363D01*
X128300Y13863D02*
X132700D01*
X128300D02*
Y16363D01*
X132700D01*
X122700Y13863D02*
Y16363D01*
X118300Y13863D02*
X122700D01*
X118300D02*
Y16363D01*
X122700D01*
X112700Y13863D02*
Y16363D01*
X108300Y13863D02*
X112700D01*
X108300D02*
Y16263D01*
X112700Y16363D01*
X102700Y13863D02*
Y16363D01*
X98300Y13863D02*
X102700D01*
X98300D02*
Y16263D01*
X102700Y16363D01*
X98300Y45763D02*
Y48263D01*
X102700D01*
Y45763D02*
Y48263D01*
X98300Y45763D02*
X102700D01*
X108300D02*
Y48263D01*
X112700D01*
Y45763D02*
Y48263D01*
X108300Y45763D02*
X112700D01*
X118300D02*
Y48263D01*
X122700D01*
Y45763D02*
Y48263D01*
X118300Y45763D02*
X122700D01*
X128300D02*
Y48263D01*
X132700D01*
Y45763D02*
Y48263D01*
X128300Y45763D02*
X132700D01*
X138300D02*
Y48263D01*
X142700D01*
Y45763D02*
Y48263D01*
X138300Y45763D02*
X142700D01*
X148300D02*
Y48263D01*
X152700D01*
Y45863D02*
Y48263D01*
X148300Y45763D02*
X152700Y45863D01*
X158300D02*
Y48263D01*
X162700D01*
Y45863D02*
Y48263D01*
X158300Y45863D02*
X162700D01*
X168300D02*
Y48263D01*
X172700D01*
Y45863D02*
Y48263D01*
X168300Y45863D02*
X172700D01*
X178300D02*
Y48263D01*
X182700D01*
Y45863D02*
Y48263D01*
X178300Y45863D02*
X182700D01*
X188300D02*
Y48263D01*
X192700D01*
Y45863D02*
Y48263D01*
X188300Y45863D02*
X192700D01*
X198300D02*
Y48263D01*
X202700D01*
Y45863D02*
Y48263D01*
X198300Y45863D02*
X202700D01*
X208300D02*
Y48263D01*
X212700D01*
Y45863D02*
Y48263D01*
X208300Y45863D02*
X212700D01*
X218300D02*
Y48263D01*
X222700D01*
Y45863D02*
Y48263D01*
X218300Y45863D02*
X222700D01*
X228300D02*
Y48263D01*
X232700D01*
Y45863D02*
Y48263D01*
X228300Y45863D02*
X232700D01*
M02*
